/* XPM */
static char *result[] = {
/* columns rows colors chars-per-pixel */
"100 100 5 1 ",
"  c #083410",
". c #0A611A",
"X c #3B443D",
"o c #788F04",
"O c #C1DC3E",
/* pixels */
"..............................................................................  ....................",
"............................................................................. . ....................",
"............................................................................. . ....................",
".....................  ..................................................... .. ....................",
"........... ......... ................................................. ... .. .....................",
"..........  ........  ....................... ........................  ... .. .....................",
".........  ......... ........................ ........................  .. ... .....................",
".........XXXXXXXXXXXXXXX..................... ........................ ... .. ......................",
"........XXXXXXXXXXXXXXXXXX.................. ........................      . .......................",
"........XXXXXXXXXXXXXXXXXX................. ........................      .. .......................",
".........XXXXXXXXXXXXXXXXXX................ ........................ .  . .  .......................",
"......... XXXXXXXXXXXXXXXXX........................................   . . . ........ ...............",
"......... ......XXXXXXXXXXX....................................... . . .............  ..............",
"........ ........ .XXXXXX. .......................................  . ...... .......  ..............",
"................. ........ ........................................  ......  .......   .............",
"..........................  ......................... .....................  ....... . .............",
"....................................................  ....................   ....... .  ............",
"................................................... . ....................   ....... ...............",
"..................................................  . ....................   .......................",
"..... ........................................... . . ...................... .......................",
"................................................... . ..............................................",
"....................................................  ..............................................",
"............. ......................................  ..............................................",
"............. ......................................................................................",
"............ ............  .........................................................................",
"............ ............ ..........................................................................",
"........................ ...........................................................................",
"........................ ...........................................................................",
"......................  ............................................................................",
".....................  ..................................................   ........................",
"..................... .................................................  ..................  .......",
"........................................................................................   .........",
"......... .............................................................................  ...........",
"....................................................................................................",
"....................................................................................................",
"....................................................................................................",
"....................................................................................................",
"....................................................................................................",
".............................................. .....................................................",
".............................................  .............. ......................................",
"............................................  ..............  ......................................",
"..........................................................   .......................................",
"..........................................................   .......................................",
"..........................................................  ................... ....................",
".........................................................   .................. .........  ..........",
"............................. ...........................  ................... ......... ...........",
"............................  .......................... .................... .......... ...........",
"............................  .............................................. .......... ............",
"...........................   .............................................. .......... ............",
"...........................   ........................................................ .............",
"...........................   ........................................................ .............",
"........ ..................   ........................................................ .............",
"........ .................. . ......................................................................",
"........ ...........................................................................................",
"....... ............................................................................................",
"....... ............................................................................................",
"....................................................................................................",
"....................................................................................................",
"...................................... ............................... .............................",
"...................................... ............................... .............................",
".................................................................... . .............................",
".................................................................... . .............................",
"....................................................................    ...............OOOO.........",
".....................................................................    ..............OooO.........",
"...................................................................... ................OooO.........",
"...................... ... ........................ ...................................OOOO.........",
".....................  ..  ....................... ...................................... ..........",
"................  ..   .   .  .................... ......................................    .......",
"................  .. . . .   .................... .......................................    .......",
"................  .. . .     ............................................................ ..........",
"............... .    .       .........................................................    ..........",
"............... ..     ...   .........................................................    ..........",
"............... .          .  .......................................................... ...........",
"...............   .   .    .. .......................................................... ...........",
"...............  ..   .  . .. ................................................XXXXXX.... ...........",
"..............   .  . .  .    ...............................................XXXXXXXXXX. ...........",
"..............        .    ................................................XXXXXXXXXXXXXX...........",
".................  ...   ..................................................XXXXXXXXXXXXXX...........",
"....................... ...................................................XXXXXXXXXXXXXX...........",
"...........................................................................XXXXXXXXXXXXX............",
"...........................................................................XXXXXXXXXXX..............",
"...........................................................................XXXXXXXX.................",
"........................................ ...........................................................",
"........................................ ...........................................................",
"........................................ ........................... ...............................",
"........................................ ........................... ...............................",
"....................................... ........................... ................................",
"................................................................... ........................ .......",
".......... ........................................................ ........................ .......",
".......... ..................................... .................. ....................... .. .....",
".......... ..................................... ................. ........................ ........",
".......... ............ .......................................... ....................... .........",
".......... ............ ......................................... ........................ .........",
".......... ...........  ......................................... ........................ .........",
"........................................................................... .............. .........",
"......................................................................................... ..........",
"......................................................................................... ..........",
"......................................................................................... ..........",
"......................................................................................... ..........",
"...................................................................................................."
};
